HIERARCHY
ROOT Hips
{
	OFFSET 0.000000 97.167313 0.000000
	CHANNELS 6 Xposition Yposition Zposition Xrotation Yrotation Zrotation
	JOINT Spine
	{
		OFFSET 0.000000 13.784798 0.064400
		CHANNELS 3 Xrotation Yrotation Zrotation
		JOINT Spine1
		{
			OFFSET 0.000000 12.037903 0.404700
			CHANNELS 3 Xrotation Yrotation Zrotation
			JOINT Spine2
			{
				OFFSET 0.000000 17.795601 0.420200
				CHANNELS 3 Xrotation Yrotation Zrotation
				JOINT Neck
				{
					OFFSET 0.000000 39.131302 11.954600
					CHANNELS 3 Xrotation Yrotation Zrotation
					JOINT Head
					{
						OFFSET 0.000000 14.456192 15.627699
						CHANNELS 3 Xrotation Yrotation Zrotation
						JOINT HeadTop_End
						{
							OFFSET 0.000000 15.703506 7.603401
							CHANNELS 3 Xrotation Yrotation Zrotation
							End Site
							{
								OFFSET 0.000000 17.447403 0.000000
							}
						}
					}
				}
				JOINT LeftShoulder
				{
					OFFSET 17.399500 24.608795 1.168800
					CHANNELS 3 Xrotation Yrotation Zrotation
					JOINT LeftArm
					{
						OFFSET 18.980635 5.765305 1.818600
						CHANNELS 3 Xrotation Yrotation Zrotation
						JOINT LeftForeArm
						{
							OFFSET 49.290169 0.000000 0.000000
							CHANNELS 3 Xrotation Yrotation Zrotation
							JOINT LeftHand
							{
								OFFSET 31.562012 0.000000 0.000000
								CHANNELS 3 Xrotation Yrotation Zrotation
								JOINT LeftHandThumb1
								{
									OFFSET 6.133995 -4.388519 7.076070
									CHANNELS 3 Xrotation Yrotation Zrotation
									JOINT LeftHandThumb2
									{
										OFFSET 6.037666 -3.485840 3.485847
										CHANNELS 3 Xrotation Yrotation Zrotation
										JOINT LeftHandThumb3
										{
											OFFSET 6.496506 -3.750763 3.750761
											CHANNELS 3 Xrotation Yrotation Zrotation
											JOINT LeftHandThumb4
											{
												OFFSET 5.616882 -3.242905 3.242910
												CHANNELS 3 Xrotation Yrotation Zrotation
												End Site
												{
													OFFSET -1.254608 7.132141 0.375429
												}
											}
										}
									}
								}
								JOINT LeftHandPinky1
								{
									OFFSET 18.920792 -0.453171 -11.426712
									CHANNELS 3 Xrotation Yrotation Zrotation
									JOINT LeftHandPinky2
									{
										OFFSET 4.919586 0.000000 0.000000
										CHANNELS 3 Xrotation Yrotation Zrotation
										JOINT LeftHandPinky3
										{
											OFFSET 5.233047 0.000000 0.000000
											CHANNELS 3 Xrotation Yrotation Zrotation
											JOINT LeftHandPinky4
											{
												OFFSET 5.571716 0.000000 0.000000
												CHANNELS 3 Xrotation Yrotation Zrotation
												End Site
												{
													OFFSET -3.459808 4.342407 -0.466164
												}
											}
										}
									}
								}
								JOINT LeftHandRing1
								{
									OFFSET 22.726120 -0.094986 -6.500475
									CHANNELS 3 Xrotation Yrotation Zrotation
									JOINT LeftHandRing2
									{
										OFFSET 6.408615 0.000000 0.000000
										CHANNELS 3 Xrotation Yrotation Zrotation
										JOINT LeftHandRing3
										{
											OFFSET 6.150223 0.000000 0.000000
											CHANNELS 3 Xrotation Yrotation Zrotation
											JOINT LeftHandRing4
											{
												OFFSET 6.145386 0.000000 0.000000
												CHANNELS 3 Xrotation Yrotation Zrotation
												End Site
												{
													OFFSET -3.671402 4.923981 -0.202372
												}
											}
										}
									}
								}
								JOINT LeftHandMiddle1
								{
									OFFSET 23.373947 0.000000 0.000001
									CHANNELS 3 Xrotation Yrotation Zrotation
									JOINT LeftHandMiddle2
									{
										OFFSET 6.996567 0.000000 0.000000
										CHANNELS 3 Xrotation Yrotation Zrotation
										JOINT LeftHandMiddle3
										{
											OFFSET 7.015945 0.000000 0.000000
											CHANNELS 3 Xrotation Yrotation Zrotation
											JOINT LeftHandMiddle4
											{
												OFFSET 7.721573 0.000000 0.000000
												CHANNELS 3 Xrotation Yrotation Zrotation
												End Site
												{
													OFFSET -4.651108 6.158463 0.251582
												}
											}
										}
									}
								}
								JOINT LeftHandIndex1
								{
									OFFSET 21.310577 -0.490082 6.209344
									CHANNELS 3 Xrotation Yrotation Zrotation
									JOINT LeftHandIndex2
									{
										OFFSET 7.536453 0.000000 0.000000
										CHANNELS 3 Xrotation Yrotation Zrotation
										JOINT LeftHandIndex3
										{
											OFFSET 7.512344 0.000000 0.000000
											CHANNELS 3 Xrotation Yrotation Zrotation
											JOINT LeftHandIndex4
											{
												OFFSET 10.212402 0.000000 0.000001
												CHANNELS 3 Xrotation Yrotation Zrotation
												End Site
												{
													OFFSET -5.180801 8.690506 1.388433
												}
											}
										}
									}
								}
							}
						}
					}
				}
				JOINT RightShoulder
				{
					OFFSET -17.399500 24.608795 1.168800
					CHANNELS 3 Xrotation Yrotation Zrotation
					JOINT RightArm
					{
						OFFSET -18.980635 5.765305 1.818600
						CHANNELS 3 Xrotation Yrotation Zrotation
						JOINT RightForeArm
						{
							OFFSET -49.290169 0.000000 0.000000
							CHANNELS 3 Xrotation Yrotation Zrotation
							JOINT RightHand
							{
								OFFSET -31.562012 0.000000 0.000000
								CHANNELS 3 Xrotation Yrotation Zrotation
								JOINT RightHandThumb1
								{
									OFFSET -6.133995 -4.388519 7.076070
									CHANNELS 3 Xrotation Yrotation Zrotation
									JOINT RightHandThumb2
									{
										OFFSET -6.037666 -3.485840 3.485847
										CHANNELS 3 Xrotation Yrotation Zrotation
										JOINT RightHandThumb3
										{
											OFFSET -6.496506 -3.750763 3.750761
											CHANNELS 3 Xrotation Yrotation Zrotation
											JOINT RightHandThumb4
											{
												OFFSET -5.616882 -3.242905 3.242910
												CHANNELS 3 Xrotation Yrotation Zrotation
												End Site
												{
													OFFSET 1.254608 7.132141 0.375429
												}
											}
										}
									}
								}
								JOINT RightHandIndex1
								{
									OFFSET -21.310577 -0.490082 6.209344
									CHANNELS 3 Xrotation Yrotation Zrotation
									JOINT RightHandIndex2
									{
										OFFSET -7.536453 0.000000 0.000000
										CHANNELS 3 Xrotation Yrotation Zrotation
										JOINT RightHandIndex3
										{
											OFFSET -7.512344 0.000000 0.000000
											CHANNELS 3 Xrotation Yrotation Zrotation
											JOINT RightHandIndex4
											{
												OFFSET -10.212402 0.000000 0.000001
												CHANNELS 3 Xrotation Yrotation Zrotation
												End Site
												{
													OFFSET 5.180801 8.690506 1.388433
												}
											}
										}
									}
								}
								JOINT RightHandMiddle1
								{
									OFFSET -23.373947 0.000000 0.000001
									CHANNELS 3 Xrotation Yrotation Zrotation
									JOINT RightHandMiddle2
									{
										OFFSET -6.996567 0.000000 0.000000
										CHANNELS 3 Xrotation Yrotation Zrotation
										JOINT RightHandMiddle3
										{
											OFFSET -7.015945 0.000000 0.000000
											CHANNELS 3 Xrotation Yrotation Zrotation
											JOINT RightHandMiddle4
											{
												OFFSET -7.721573 0.000000 0.000000
												CHANNELS 3 Xrotation Yrotation Zrotation
												End Site
												{
													OFFSET 4.651108 6.158463 0.251582
												}
											}
										}
									}
								}
								JOINT RightHandRing1
								{
									OFFSET -22.726120 -0.094986 -6.500475
									CHANNELS 3 Xrotation Yrotation Zrotation
									JOINT RightHandRing2
									{
										OFFSET -6.408615 0.000000 0.000000
										CHANNELS 3 Xrotation Yrotation Zrotation
										JOINT RightHandRing3
										{
											OFFSET -6.150223 0.000000 0.000000
											CHANNELS 3 Xrotation Yrotation Zrotation
											JOINT RightHandRing4
											{
												OFFSET -6.145386 0.000000 0.000000
												CHANNELS 3 Xrotation Yrotation Zrotation
												End Site
												{
													OFFSET 3.671402 4.923981 -0.202372
												}
											}
										}
									}
								}
								JOINT RightHandPinky1
								{
									OFFSET -18.920792 -0.453171 -11.426712
									CHANNELS 3 Xrotation Yrotation Zrotation
									JOINT RightHandPinky2
									{
										OFFSET -4.919586 0.000000 0.000000
										CHANNELS 3 Xrotation Yrotation Zrotation
										JOINT RightHandPinky3
										{
											OFFSET -5.233047 0.000000 0.000000
											CHANNELS 3 Xrotation Yrotation Zrotation
											JOINT RightHandPinky4
											{
												OFFSET -5.571716 0.000000 0.000000
												CHANNELS 3 Xrotation Yrotation Zrotation
												End Site
												{
													OFFSET 3.459808 4.342407 -0.466164
												}
											}
										}
									}
								}
							}
						}
					}
				}
			}
		}
	}
	JOINT LeftUpLeg
	{
		OFFSET 19.899099 -7.885101 -3.429500
		CHANNELS 3 Xrotation Yrotation Zrotation
		JOINT LeftLeg
		{
			OFFSET 1.745560 -36.997807 10.304700
			CHANNELS 3 Xrotation Yrotation Zrotation
			JOINT LeftFoot
			{
				OFFSET -1.745558 -29.803308 -13.615400
				CHANNELS 3 Xrotation Yrotation Zrotation
				JOINT LeftToeBase
				{
					OFFSET 1.181900 -18.539904 15.226099
					CHANNELS 3 Xrotation Yrotation Zrotation
					JOINT LeftToe_End
					{
						OFFSET -0.863701 1.402801 16.534700
						CHANNELS 3 Xrotation Yrotation Zrotation
						End Site
						{
							OFFSET 0.000000 16.616566 0.000000
						}
					}
				}
			}
		}
	}
	JOINT RightUpLeg
	{
		OFFSET -19.899099 -7.885101 -3.429500
		CHANNELS 3 Xrotation Yrotation Zrotation
		JOINT RightLeg
		{
			OFFSET -1.745560 -36.997807 10.304700
			CHANNELS 3 Xrotation Yrotation Zrotation
			JOINT RightFoot
			{
				OFFSET 1.745558 -29.803308 -13.615400
				CHANNELS 3 Xrotation Yrotation Zrotation
				JOINT RightToeBase
				{
					OFFSET -1.181900 -18.539904 15.226099
					CHANNELS 3 Xrotation Yrotation Zrotation
					JOINT RightToe_End
					{
						OFFSET 0.863701 1.402801 16.534700
						CHANNELS 3 Xrotation Yrotation Zrotation
						End Site
						{
							OFFSET 0.000000 16.616566 0.000000
						}
					}
				}
			}
		}
	}
}
MOTION
Frames: 5
Frame Time: 0.033333
1.434809 88.417297 2.811823 -2.384581 0.100511 -3.254312 14.293492 1.335744 3.706887 -4.344027 0.844258 -0.932464 -4.329083 0.772027 -1.030093 -0.099546 -1.689906 2.622676 -5.841249 -0.460633 -1.540174 -0.000000 -0.000000 0.000000 2.370573 2.599457 -1.341548 -3.621844 -8.176762 -74.042174 12.004546 -10.521604 -9.011704 -0.378870 1.905242 11.578264 -4.982839 13.405860 11.311744 3.552839 8.476786 1.828083 3.545075 8.477730 1.833800 -0.000003 -0.000002 -0.000004 -3.466226 -6.910128 -39.124655 0.000273 0.027914 -31.381567 0.014188 0.031175 -31.168267 -0.000001 0.000001 -0.000005 -1.915501 -6.193614 -34.198617 0.015323 0.013389 -28.105366 -0.006380 0.007238 -27.930821 -0.000004 -0.000001 0.000005 -0.682824 -5.541194 -29.068349 -0.021685 0.013304 -24.675153 -0.029216 0.011955 -24.545096 0.000003 0.000001 0.000011 0.376721 -6.145600 -25.285051 -0.034531 0.056857 -22.183840 -0.016029 0.013512 -22.069451 -0.000000 0.000002 -0.000003 3.460689 0.236085 4.393011 -1.477934 25.831548 70.378761 6.809958 19.846131 4.732005 -19.537548 0.958355 -12.165025 -0.782975 -20.555736 -5.075709 4.560302 -11.066409 -2.300585 -0.000450 0.029142 -0.003784 -0.000000 -0.000001 0.000001 0.748690 1.485555 23.202841 -0.036691 -0.055025 19.908355 0.011296 -0.015558 19.774588 -0.000003 -0.000001 0.000001 -0.268029 2.185023 25.525068 -0.021432 -0.008209 21.457767 0.011068 -0.008491 21.314843 0.000001 0.000001 -0.000002 -1.284775 3.638240 29.547822 -0.001792 -0.015639 24.164332 0.009025 -0.040321 23.983607 -0.000001 0.000001 -0.000003 -2.714528 5.335814 33.797494 -0.000034 -0.025831 26.995339 -0.018804 0.008573 26.784401 0.000002 0.000000 0.000000 -26.294919 3.724533 6.994451 56.854454 1.406293 0.203616 -1.457144 0.490353 -7.623886 -10.538613 -1.036525 5.076599 -0.000001 0.000001 -0.000000 -9.604004 -5.912411 9.904806 30.151921 5.505149 0.324945 -14.511244 3.035107 -11.660119 0.505325 -0.005964 0.930889 -0.000000 -0.000000 -0.000000 
1.424223 88.602547 6.724440 -2.363623 -1.092641 -2.709400 13.663410 1.099123 1.275615 -3.541877 0.297477 0.527872 -3.509629 0.388596 0.472567 -0.083114 -0.857202 2.234975 -6.840738 0.908299 -3.554245 -0.000000 0.000000 0.000000 2.279032 5.444506 -3.141549 -2.232813 -7.235546 -74.730746 12.502987 -12.915699 -8.475076 -0.505178 2.783511 12.158167 -3.075414 9.254259 7.110637 2.346153 5.494944 1.242129 2.290713 5.374679 1.219019 -0.000002 -0.000000 0.000000 -4.049665 -5.744415 -38.296888 -0.006232 0.018317 -29.080876 0.005047 0.022661 -28.799161 -0.000000 0.000001 0.000001 -2.454979 -4.526850 -34.102779 0.015592 0.013703 -26.334233 -0.007347 0.000637 -26.084467 -0.000002 -0.000001 0.000007 -1.105691 -3.518818 -30.207823 -0.022604 0.010681 -20.252428 -0.029305 0.002389 -22.190641 0.000000 0.000000 0.000004 0.424024 -3.381086 -28.663756 -0.041378 0.050542 -14.906471 -0.017157 0.012910 -16.870815 -0.000001 0.000001 0.000003 3.189360 2.665973 2.303682 -0.554837 29.043382 69.000190 7.781291 23.476999 2.247927 -21.020995 -1.017010 -13.355489 -1.607270 -18.644043 -5.114092 4.472687 -10.842111 -2.261224 0.679302 -1.550687 -0.385980 -0.000000 -0.000002 -0.000000 1.219211 1.009025 22.404636 -0.037846 -0.053991 18.696075 0.007379 -0.015377 17.787443 -0.000000 0.000003 0.000004 -0.186307 1.424227 25.081718 -0.025219 -0.006554 20.654212 0.009169 -0.004999 20.503610 -0.000001 0.000001 -0.000006 -0.911978 1.896330 28.663265 -0.001420 -0.008475 23.092827 0.007776 -0.036065 22.932809 -0.000000 0.000001 -0.000005 -2.145937 3.296435 32.360692 -0.002273 -0.022055 26.122388 -0.019181 0.008975 26.682450 -0.000003 -0.000001 -0.000001 -30.044209 6.605012 5.703662 49.554122 4.358713 0.972932 -3.821513 0.042310 -1.428092 -0.484556 1.426176 0.123557 -0.000000 0.000001 0.000000 -5.819797 -5.306189 9.278393 29.310616 6.501850 0.500942 -17.337392 3.638783 -12.086782 0.505189 -0.005971 0.931229 0.000000 -0.000000 -0.000000 
1.534071 88.774078 10.273237 -2.351477 -2.225815 -2.128882 13.031558 0.827552 -1.169251 -2.712993 -0.246329 1.970613 -2.676801 0.006562 1.957562 -0.024083 -0.144340 1.885212 -7.518980 1.970451 -5.056232 -0.000000 0.000000 0.000000 2.384247 8.512473 -5.116503 -1.389004 -6.331910 -75.511798 13.497148 -14.139059 -7.997231 -0.560327 2.921981 12.829589 -2.051965 6.578309 4.782568 1.762017 4.083949 0.946732 1.681675 3.896898 0.902301 0.000001 0.000001 -0.000003 -4.278238 -4.819834 -37.615498 -0.010026 0.017990 -27.617872 0.004449 0.022600 -27.297022 0.000001 0.000001 -0.000007 -2.599421 -3.277088 -33.840766 0.015972 0.013901 -25.142982 -0.007357 0.000341 -24.849943 -0.000000 0.000001 0.000007 -1.235538 -2.219567 -30.598175 -0.023036 0.009134 -17.667510 -0.029255 0.001432 -20.687548 0.000000 -0.000001 0.000001 0.616679 -1.722389 -30.275869 -0.044799 0.046658 -10.849511 -0.017534 0.011756 -13.904190 0.000000 -0.000000 0.000003 3.079594 5.077903 0.273931 -0.093183 32.397995 67.502029 8.944096 25.679179 -0.320081 -22.428610 -2.376214 -14.199930 -2.551290 -16.484510 -5.122864 4.373094 -10.587693 -2.216277 1.436552 -3.348700 -0.801047 0.000002 0.000000 -0.000000 1.736946 0.453013 21.507140 -0.039144 -0.052790 17.320332 0.006851 -0.014721 15.532788 0.000001 -0.000003 -0.000002 -0.108037 0.559681 24.576139 -0.025150 -0.005981 19.742329 0.009231 -0.001011 19.583049 -0.000001 0.000000 -0.000004 -0.554872 -0.092450 27.652940 -0.000715 -0.004350 21.877007 0.006683 -0.033555 21.740487 0.000003 0.000002 -0.000005 -1.627367 0.954061 30.723284 -0.004687 -0.019812 25.131920 -0.019599 0.009421 26.566740 0.000002 0.000002 0.000004 -32.166103 8.783175 4.162673 40.121440 5.856250 1.282875 -4.067153 -0.663185 4.345243 1.878015 2.573416 -4.510918 0.000000 0.000000 0.000000 -2.286937 -4.802550 8.335016 28.169737 7.407560 0.622257 -19.650910 4.273311 -12.217093 0.508062 -0.005869 0.924061 -0.000000 0.000000 -0.000000 
1.776598 88.888206 13.534156 -2.419815 -3.179824 -1.673299 12.534213 0.577814 -3.104349 -1.941695 -0.730755 3.097982 -1.914798 -0.341054 3.125194 0.075391 0.386947 1.561947 -7.792751 2.516476 -5.661963 0.000000 0.000000 0.000000 2.711238 11.583427 -7.130708 -1.051668 -5.561129 -76.144103 14.770622 -14.379688 -7.660532 -0.558478 2.579447 13.502603 -1.430352 4.698143 3.297909 1.514929 3.493114 0.818989 1.417816 3.266303 0.764582 0.000000 0.000000 -0.000006 -4.318740 -4.010258 -36.981933 -0.011730 0.017470 -26.537559 0.004307 0.022311 -26.191832 0.000000 0.000002 -0.000002 -2.535638 -2.223603 -33.482250 0.016408 0.014041 -24.203214 -0.007361 -0.000087 -23.885537 -0.000001 0.000001 0.000003 -1.230283 -1.292770 -30.597806 -0.023238 0.008115 -15.981454 -0.029408 0.000492 -19.576743 -0.000000 -0.000001 0.000008 0.797044 -0.608333 -30.995945 -0.046746 0.044203 -8.405738 -0.017470 0.010719 -12.048606 0.000001 0.000001 0.000001 3.114803 7.140016 -1.367680 -0.121362 35.410207 66.072716 9.998125 26.610005 -2.549770 -23.445668 -3.122118 -14.641489 -3.564323 -14.208659 -5.091618 4.267419 -10.318207 -2.168254 2.226511 -5.259358 -1.215796 0.000001 0.000003 0.000007 2.266460 -0.153319 20.565578 -0.040458 -0.051493 15.862775 0.006365 -0.013604 13.143937 -0.000002 0.000000 -0.000001 -0.041840 -0.357628 24.036955 -0.024903 -0.005266 18.776422 0.009226 0.001175 18.607740 0.000003 -0.000002 -0.000007 -0.253285 -2.211638 26.570857 0.000361 -0.004070 20.588746 0.005946 -0.033457 20.477274 0.000001 0.000002 0.000000 -1.225598 -1.553985 28.972006 -0.005521 -0.019522 24.082456 -0.020033 0.009879 26.444122 0.000001 -0.000000 0.000006 -33.980225 10.691102 3.139879 31.828490 5.745132 1.321107 -2.584367 -1.608727 7.239748 1.392978 2.324261 -5.454525 -0.000001 0.000000 -0.000000 1.189598 -4.316750 7.372865 26.749642 8.032780 0.543779 -21.664091 4.825819 -11.933524 0.527469 -0.005270 0.875250 -0.000000 -0.000001 -0.000000 
2.029707 89.172035 16.682037 -2.568677 -3.964156 -1.485507 12.301433 0.454880 -3.995117 -1.433500 -1.021191 3.604979 -1.421851 -0.553299 3.660253 0.190663 0.857495 1.235086 -7.931263 2.870758 -5.928902 0.000000 -0.000000 0.000000 3.228999 14.468175 -9.062885 -1.029536 -4.954494 -76.081231 16.220468 -14.130205 -7.457233 -0.519294 2.032536 13.907133 -0.982867 3.165222 2.169609 1.427286 3.283940 0.772924 1.318100 3.029083 0.711998 0.000001 0.000001 -0.000002 -4.276725 -3.248998 -36.354713 -0.012839 0.017110 -25.607339 0.003648 0.022156 -25.242656 0.000002 0.000001 -0.000004 -2.378177 -1.248847 -33.071766 0.016856 0.014164 -23.354336 -0.007380 -0.000393 -23.021528 0.000000 0.000000 0.000003 -1.166902 -0.533831 -30.412633 -0.023403 0.007313 -14.681440 -0.029092 -0.000192 -18.621375 -0.000001 0.000000 0.000004 0.952721 0.269192 -31.312220 -0.048058 0.042436 -6.675839 -0.018645 0.009856 -10.681044 -0.000000 0.000002 -0.000001 3.205065 8.402039 -2.165239 -0.418317 37.320635 64.994543 10.675538 27.231128 -4.060997 -23.733999 -3.583382 -14.878944 -4.593679 -11.945626 -5.018220 4.161529 -10.048746 -2.119928 3.005569 -7.175991 -1.605569 -0.000002 -0.000001 -0.000004 2.776274 -0.776974 19.633339 -0.041762 -0.050138 14.405043 0.005974 -0.012152 10.754538 -0.000003 -0.000003 0.000001 0.007041 -1.276255 23.493822 -0.026312 -0.004906 17.810087 0.009278 0.000852 17.632174 0.000004 0.000000 -0.000009 -0.031225 -4.341474 25.472308 0.001636 -0.003739 19.300279 0.005201 -0.033300 19.213694 -0.000003 -0.000001 -0.000002 -0.977218 -4.082558 27.193763 -0.006832 -0.019231 23.032706 -0.020492 0.010365 26.321515 0.000001 0.000001 0.000004 -35.122609 13.386859 2.731855 24.751994 5.458484 1.349271 -0.981795 -2.768928 7.494981 1.623330 0.857154 -5.683710 -0.000001 0.000001 0.000000 5.348696 -3.765868 6.615576 23.816711 8.671702 0.516930 -23.159718 5.148847 -11.496605 0.714946 -0.001105 0.400810 0.000000 -0.000000 0.000000 
